<?xml version="1.0" encoding="UTF-8" standalone="no"?>
<!-- Generator: Adobe Illustrator 17.1.0, SVG Export Plug-In . SVG Version: 6.00 Build 0)  -->

<svg
   version="1.1"
   id="Capa_1"
   x="0px"
   y="0px"
   viewBox="0 0 511 511"
   style="enable-background:new 0 0 511 511;"
   xml:space="preserve"
   sodipodi:docname="info.svg"
   inkscape:version="1.1.1 (3bf5ae0d25, 2021-09-20, custom)"
   xmlns:inkscape="http://www.inkscape.org/namespaces/inkscape"
   xmlns:sodipodi="http://sodipodi.sourceforge.net/DTD/sodipodi-0.dtd"
   xmlns="http://www.w3.org/2000/svg"
   xmlns:svg="http://www.w3.org/2000/svg"><defs
   id="defs43" /><sodipodi:namedview
   id="namedview41"
   pagecolor="#ffffff"
   bordercolor="#666666"
   borderopacity="1.0"
   inkscape:pageshadow="2"
   inkscape:pageopacity="0.0"
   inkscape:pagecheckerboard="0"
   showgrid="false"
   inkscape:zoom="1.221135"
   inkscape:cx="255.5"
   inkscape:cy="255.5"
   inkscape:window-width="1920"
   inkscape:window-height="1052"
   inkscape:window-x="0"
   inkscape:window-y="28"
   inkscape:window-maximized="1"
   inkscape:current-layer="Capa_1" />
<g
   id="g8"
   style="fill:#0000ff">
	<path
   d="M331.5,0C234.729,0,156,78.729,156,175.5c0,47.724,19.156,91.051,50.173,122.72l-28.547,28.547   c-6.176-4.197-13.415-6.551-21.086-6.752c-10.945-0.287-21.231,3.816-28.973,11.552L10.883,448.252   C6.445,452.691,4,458.592,4,464.87s2.445,12.179,6.883,16.617l22.63,22.63C37.952,508.555,43.853,511,50.13,511   s12.179-2.444,16.617-6.883l115.415-115.415c14.218-14.218,16.451-35.795,6.056-51.314l28.896-28.896   C247.856,334.97,287.84,351,331.5,351c96.771,0,175.5-78.729,175.5-175.5S428.271,0,331.5,0z M171.556,378.095L56.141,493.51   c-1.605,1.605-3.74,2.49-6.011,2.49s-4.405-0.884-6.01-2.49l-22.63-22.63c0,0,0,0,0,0c-1.605-1.605-2.49-3.739-2.49-6.01   s0.884-4.405,2.49-6.011l116.683-116.683c4.645-4.641,10.769-7.174,17.309-7.174c0.222,0,0.444,0.003,0.666,0.009   c6.784,0.178,13.033,3.065,17.596,8.132C182.307,352.646,181.325,368.326,171.556,378.095z M331.5,336C243,336,171,264,171,175.5   S243,15,331.5,15S492,87,492,175.5S420,336,331.5,336z"
   id="path2"
   style="fill:#0000ff" />
	<path
   d="M331.5,32C252.374,32,188,96.374,188,175.5S252.374,319,331.5,319S475,254.626,475,175.5S410.626,32,331.5,32z M331.5,304   C260.645,304,203,246.355,203,175.5S260.645,47,331.5,47S460,104.645,460,175.5S402.355,304,331.5,304z"
   id="path4"
   style="fill:#0000ff" />
	<path
   d="M440.016,149.773c-9.611-40.684-42.109-73.181-82.794-82.79c-4.03-0.953-8.071,1.544-9.023,5.575   c-0.952,4.031,1.544,8.071,5.575,9.023c35.206,8.315,63.327,36.436,71.644,71.64c0.815,3.451,3.894,5.777,7.293,5.777   c0.571,0,1.151-0.066,1.73-0.203C438.472,157.844,440.968,153.804,440.016,149.773z"
   id="path6"
   style="fill:#0000ff" />
</g>
<g
   id="g10">
</g>
<g
   id="g12">
</g>
<g
   id="g14">
</g>
<g
   id="g16">
</g>
<g
   id="g18">
</g>
<g
   id="g20">
</g>
<g
   id="g22">
</g>
<g
   id="g24">
</g>
<g
   id="g26">
</g>
<g
   id="g28">
</g>
<g
   id="g30">
</g>
<g
   id="g32">
</g>
<g
   id="g34">
</g>
<g
   id="g36">
</g>
<g
   id="g38">
</g>
</svg>
