<?xml version="1.0" encoding="UTF-8" standalone="no"?>
<!-- Generator: Adobe Illustrator 17.1.0, SVG Export Plug-In . SVG Version: 6.00 Build 0)  -->

<svg
   version="1.1"
   id="Capa_1"
   x="0px"
   y="0px"
   viewBox="0 0 511 511"
   style="enable-background:new 0 0 511 511;"
   xml:space="preserve"
   sodipodi:docname="terminal.svg"
   inkscape:version="1.1.1 (3bf5ae0d25, 2021-09-20, custom)"
   xmlns:inkscape="http://www.inkscape.org/namespaces/inkscape"
   xmlns:sodipodi="http://sodipodi.sourceforge.net/DTD/sodipodi-0.dtd"
   xmlns="http://www.w3.org/2000/svg"
   xmlns:svg="http://www.w3.org/2000/svg"><defs
   id="defs53" /><sodipodi:namedview
   id="namedview51"
   pagecolor="#ffffff"
   bordercolor="#666666"
   borderopacity="1.0"
   inkscape:pageshadow="2"
   inkscape:pageopacity="0.0"
   inkscape:pagecheckerboard="0"
   showgrid="false"
   inkscape:zoom="1.221135"
   inkscape:cx="255.5"
   inkscape:cy="255.5"
   inkscape:window-width="1920"
   inkscape:window-height="1052"
   inkscape:window-x="0"
   inkscape:window-y="28"
   inkscape:window-maximized="1"
   inkscape:current-layer="Capa_1" />
<g
   id="g18"
   style="fill:#0000ff">
	<path
   d="M455.5,40h-400C24.897,40,0,64.897,0,95.5v320C0,446.103,24.897,471,55.5,471h400c30.603,0,55.5-24.897,55.5-55.5v-320   C511,64.897,486.103,40,455.5,40z M496,415.5c0,22.332-18.168,40.5-40.5,40.5h-400C33.168,456,15,437.832,15,415.5v-320   C15,73.168,33.168,55,55.5,55h400c22.332,0,40.5,18.168,40.5,40.5V415.5z"
   id="path2"
   style="fill:#0000ff" />
	<path
   d="M471.5,120h-432c-4.142,0-7.5,3.357-7.5,7.5s3.358,7.5,7.5,7.5h432c4.142,0,7.5-3.357,7.5-7.5S475.642,120,471.5,120z"
   id="path4"
   style="fill:#0000ff" />
	<path
   d="M55.5,95c1.98,0,3.91-0.8,5.3-2.2c1.4-1.39,2.2-3.32,2.2-5.3c0-1.971-0.8-3.91-2.2-5.3c-1.39-1.4-3.32-2.2-5.3-2.2   s-3.91,0.8-5.3,2.2c-1.4,1.39-2.2,3.329-2.2,5.3c0,1.979,0.8,3.91,2.2,5.3C51.59,94.2,53.52,95,55.5,95z"
   id="path6"
   style="fill:#0000ff" />
	<path
   d="M119.5,95c1.97,0,3.91-0.8,5.3-2.2c1.4-1.39,2.2-3.32,2.2-5.3c0-1.971-0.8-3.91-2.2-5.3c-1.39-1.4-3.33-2.2-5.3-2.2   c-1.98,0-3.91,0.8-5.3,2.2c-1.4,1.39-2.2,3.329-2.2,5.3c0,1.979,0.8,3.91,2.2,5.3C115.59,94.2,117.52,95,119.5,95z"
   id="path8"
   style="fill:#0000ff" />
	<path
   d="M87.5,95c1.98,0,3.91-0.8,5.3-2.2c1.4-1.39,2.2-3.32,2.2-5.3c0-1.971-0.8-3.91-2.2-5.3c-1.39-1.4-3.32-2.2-5.3-2.2   c-1.97,0-3.91,0.8-5.3,2.2c-1.4,1.39-2.2,3.329-2.2,5.3c0,1.979,0.8,3.91,2.2,5.3C83.59,94.2,85.53,95,87.5,95z"
   id="path10"
   style="fill:#0000ff" />
	<path
   d="M188.803,210.196c-2.929-2.928-7.678-2.928-10.606,0l-80,80c-2.929,2.93-2.929,7.678,0,10.607l80,80   c1.464,1.464,3.384,2.196,5.303,2.196s3.839-0.732,5.303-2.196c2.929-2.93,2.929-7.678,0-10.607L114.106,295.5l74.697-74.696   C191.732,217.874,191.732,213.126,188.803,210.196z"
   id="path12"
   style="fill:#0000ff" />
	<path
   d="M332.803,210.196c-2.929-2.928-7.678-2.928-10.606,0c-2.929,2.93-2.929,7.678,0,10.607l74.697,74.696l-74.697,74.696   c-2.929,2.93-2.929,7.678,0,10.607c1.464,1.464,3.384,2.196,5.303,2.196s3.839-0.732,5.303-2.196l80-80   c2.929-2.93,2.929-7.678,0-10.607L332.803,210.196z"
   id="path14"
   style="fill:#0000ff" />
	<path
   d="M290.063,200.451c-3.892-1.412-8.195,0.594-9.611,4.485l-64,176c-1.416,3.894,0.592,8.196,4.485,9.612   c0.846,0.308,1.711,0.453,2.563,0.453c3.064,0,5.941-1.893,7.049-4.938l64-176C295.964,206.17,293.956,201.867,290.063,200.451z"
   id="path16"
   style="fill:#0000ff" />
</g>
<g
   id="g20">
</g>
<g
   id="g22">
</g>
<g
   id="g24">
</g>
<g
   id="g26">
</g>
<g
   id="g28">
</g>
<g
   id="g30">
</g>
<g
   id="g32">
</g>
<g
   id="g34">
</g>
<g
   id="g36">
</g>
<g
   id="g38">
</g>
<g
   id="g40">
</g>
<g
   id="g42">
</g>
<g
   id="g44">
</g>
<g
   id="g46">
</g>
<g
   id="g48">
</g>
</svg>
